Coordinates
version=1
nRows=10
nColumns=46
inDegrees=yes

Units are S.I. units (second, meters, Newtons, ...)
Angles are in degrees.

endheader
time	pelvis_tilt	pelvis_list	pelvis_rotation	pelvis_tx	pelvis_ty	pelvis_tz	bb_angle	bb_tx	bb_ty	bb_tz	hip_flexion_r	hip_adduction_r	hip_rotation_r	knee_angle_r	knee_angle_r_beta	ankle_angle_r	subtalar_angle_r	mtp_angle_r	crank_angle_r	hip_flexion_l	hip_adduction_l	hip_rotation_l	knee_angle_l	knee_angle_l_beta	ankle_angle_l	subtalar_angle_l	mtp_angle_l	crank_angle_l	lumbar_extension	lumbar_bending	lumbar_rotation	arm_flex_r	arm_add_r	arm_rot_r	elbow_flex_r	pro_sup_r	wrist_flex_r	wrist_dev_r	arm_flex_l	arm_add_l	arm_rot_l	elbow_flex_l	pro_sup_l	wrist_flex_l	wrist_dev_l
      5.00000000	    -35.70135601	     -9.15787142	     -9.68734113	      0.41863970	      1.06065718	     -0.22718503	      0.00000000	      0.50000000	      0.00000000	      0.25000000	     77.82096759	      6.92256395	     -0.52007127	    106.63186210	      1.86107708	    -16.67903067	     -8.94084151	      0.00000000	      0.00000000	     37.00697369	    -16.63031707	     -8.78090922	     21.53935681	      0.37593270	    -18.09059254	     -5.11871943	      0.00000000	      0.00000000	    -57.25766847	      2.02079330	      2.89288194	     35.99022033	    -31.14778289	     30.25326922	    113.30194173	     55.47683266	      0.00000000	      0.00000000	      1.77965470	    -23.40689454	      0.40429776	    126.49033733	     54.67008097	      0.00000000	      0.00000000
      5.00500000	    -35.87154147	     -9.52446973	    -10.05449239	      0.41775814	      1.06079673	     -0.22723336	      0.00000000	      0.50000000	      0.00000000	      0.25000000	     79.39898697	      7.12709183	     -1.00853729	    107.48593192	      1.87598341	    -15.88661638	     -9.00775083	      0.00000000	      0.00000000	     36.23415458	    -17.17265300	     -9.63569222	     20.61848837	      0.35986051	    -19.91697648	     -4.49974777	      0.00000000	      0.00000000	    -57.18163750	      2.35311729	      3.53086323	     36.32370887	    -31.16186535	     30.27475676	    113.43699084	     55.49217249	      0.00000000	      0.00000000	      2.11904566	    -23.36147835	      0.31337036	    126.58669868	     54.67512300	      0.00000000	      0.00000000
      5.01000000	    -35.78549325	     -9.63217467	    -10.55661615	      0.41751935	      1.06188945	     -0.22690753	      0.00000000	      0.50000000	      0.00000000	      0.25000000	     80.62375788	      7.42787605	     -1.19475961	    108.03585794	      1.88558143	    -15.67593768	     -8.44176235	      0.00000000	      0.00000000	     34.92485012	    -17.45784369	    -10.68730539	     19.33148351	      0.33739804	    -22.20894092	     -4.54227010	      0.00000000	      0.00000000	    -57.39696540	      2.27931517	      4.30348748	     36.52331211	    -31.61386198	     30.50753479	    113.77467797	     55.55824176	      0.00000000	      0.00000000	      3.15836411	    -22.98024322	      0.32178958	    126.28131241	     54.64543171	      0.00000000	      0.00000000
      5.01500000	    -35.86232127	     -9.86585815	    -10.93006097	      0.41713566	      1.06294286	     -0.22698084	      0.00000000	      0.50000000	      0.00000000	      0.25000000	     81.88726810	      7.67037333	     -1.50642019	    108.40137167	      1.89196085	    -15.19569213	     -8.15476548	      0.00000000	      0.00000000	     34.05868520	    -17.80643387	    -11.47042864	     18.43514118	      0.32175391	    -24.46230762	     -4.60370331	      0.00000000	      0.00000000	    -57.51254921	      2.40775936	      5.42482819	     36.26986605	    -32.39614343	     30.23189928	    114.58620414	     55.60683210	      0.00000000	      0.00000000	      4.68052547	    -22.73758385	      1.07896474	    125.55590559	     54.72052315	      0.00000000	      0.00000000
      5.02000000	    -35.98611758	    -10.01387714	    -11.27382998	      0.41675893	      1.06412584	     -0.22690594	      0.00000000	      0.50000000	      0.00000000	      0.25000000	     83.13017982	      7.95478160	     -1.70806248	    108.57607300	      1.89500996	    -14.82214476	     -7.89774733	      0.00000000	      0.00000000	     33.31622369	    -18.05918005	    -12.13567011	     17.64394051	      0.30794485	    -26.67659678	     -4.76178852	      0.00000000	      0.00000000	    -57.63991566	      2.48545547	      5.99757791	     36.53751244	    -32.33354985	     30.30137356	    114.70851487	     55.61185069	      0.00000000	      0.00000000	      5.32582384	    -22.54370008	      1.01888688	    125.44768520	     54.71082231	      0.00000000	      0.00000000
      5.02500000	    -36.23576421	    -10.24870741	    -11.52315157	      0.41655531	      1.06553940	     -0.22654907	      0.00000000	      0.50000000	      0.00000000	      0.25000000	     84.33871567	      8.15177544	     -2.14687324	    108.53075945	      1.89421909	    -14.48413764	     -7.83691345	      0.00000000	      0.00000000	     32.85155557	    -18.39903637	    -12.52468601	     17.04347957	      0.29746483	    -28.99988179	     -5.02500829	      0.00000000	      0.00000000	    -57.73112929	      2.66725471	      6.56258307	     36.75539339	    -32.30969245	     30.43717355	    114.97161214	     55.65152160	      0.00000000	      0.00000000	      5.84043784	    -22.41872392	      1.05246748	    125.20198309	     54.68660430	      0.00000000	      0.00000000
      5.03000000	    -36.43965800	    -10.35979455	    -11.67822350	      0.41598233	      1.06697462	     -0.22654538	      0.00000000	      0.50000000	      0.00000000	      0.25000000	     85.40411327	      8.23017238	     -2.43290456	    108.34830266	      1.89103462	    -13.84636575	     -7.93280751	      0.00000000	      0.00000000	     32.63069227	    -18.61660895	    -12.90343917	     16.92148524	      0.29533563	    -31.14793516	     -4.60927718	      0.00000000	      0.00000000	    -57.83700300	      2.86313002	      6.85155511	     37.07618127	    -32.23711554	     30.40472612	    115.16175095	     55.66868383	      0.00000000	      0.00000000	      6.08781534	    -22.38568305	      1.04315576	    125.22110068	     54.68807034	      0.00000000	      0.00000000
      5.03500000	    -36.59694181	    -10.38090854	    -11.93318779	      0.41570263	      1.06897735	     -0.22639287	      0.00000000	      0.50000000	      0.00000000	      0.25000000	     86.23373186	      8.58765858	     -2.45625117	    107.89509196	      1.88312460	    -13.17327818	     -7.77138735	      0.00000000	      0.00000000	     32.11972256	    -18.65264118	    -13.03460516	     16.31709488	      0.28478703	    -33.80730801	     -5.67601290	      0.00000000	      0.00000000	    -58.11721401	      2.82579039	      7.26417747	     37.46207289	    -32.23050166	     30.57063093	    115.64119616	     55.74834147	      0.00000000	      0.00000000	      6.55280802	    -22.16116094	      1.24340453	    125.10130659	     54.70112388	      0.00000000	      0.00000000
      5.04000000	    -36.69329928	    -10.18533558	    -11.88061527	      0.41509932	      1.07082708	     -0.22683226	      0.00000000	      0.50000000	      0.00000000	      0.25000000	     86.95735320	      8.49561920	     -2.32895411	    107.41915405	      1.87481792	    -12.29825838	     -7.79554544	      0.00000000	      0.00000000	     31.92285072	    -18.32334311	    -12.77070675	     16.24340613	      0.28350092	    -36.12938107	     -6.69178885	      0.00000000	      0.00000000	    -58.38250769	      2.82770555	      7.50866740	     37.66125793	    -32.78558714	     30.68290613	    116.29995050	     55.83435722	      0.00000000	      0.00000000	      7.28309838	    -22.04218078	      1.78661869	    124.77705707	     54.74692156	      0.00000000	      0.00000000
      5.04500000	    -36.98370505	    -10.23425919	    -12.16652576	      0.41490019	      1.07286408	     -0.22654866	      0.00000000	      0.50000000	      0.00000000	      0.25000000	     87.55862204	      8.87769137	     -2.45529782	    106.63698490	      1.86116649	    -11.27431904	     -7.94835961	      0.00000000	      0.00000000	     32.03229526	    -18.60722233	    -13.05696531	     16.71995669	      0.29181830	    -37.56289344	     -6.84028876	      0.00000000	      0.00000000	    -58.60453498	      2.74174610	      7.75680712	     37.93012123	    -32.67710509	     30.62396712	    116.54039309	     55.85529972	      0.00000000	      0.00000000	      7.41702153	    -22.03756389	      1.79250530	    124.76495036	     54.74787022	      0.00000000	      0.00000000
